<svg xmlns="http://www.w3.org/2000/svg" xmlns:svg="http://www.w3.org/2000/svg" xmlns:xlink="http://www.w3.org/1999/xlink" id="svg2" width="300" height="300" version="1.0"><title id="title110">channel_linked</title><defs id="defs4"><linearGradient id="linearGradient3760"><stop id="stop3762" offset="0" stop-color="#2b2b2b" stop-opacity="1"/><stop id="stop3764" offset="1" stop-color="#5f5f5f" stop-opacity=".532"/></linearGradient><linearGradient id="linearGradient3789"><stop id="stop3791" offset="0" stop-color="#333" stop-opacity="1"/><stop id="stop3793" offset="1" stop-color="#333" stop-opacity="0"/></linearGradient><linearGradient id="linearGradient3751"><stop id="stop3753" offset="0" stop-color="#fff" stop-opacity="1"/><stop id="stop3755" offset="1" stop-color="#fff" stop-opacity="0"/></linearGradient><linearGradient id="linearGradient4001"><stop id="stop4003" offset="0" stop-color="#666" stop-opacity="1"/><stop id="stop4005" offset="1" stop-color="#666" stop-opacity="0"/></linearGradient><linearGradient id="linearGradient3971"><stop id="stop3973" offset="0" stop-color="#666" stop-opacity="1"/><stop id="stop3975" offset="1" stop-color="#666" stop-opacity="0"/></linearGradient><linearGradient id="linearGradient3835"><stop id="stop3837" offset="0" stop-color="#7d7d7d" stop-opacity=".839"/><stop id="stop3839" offset="1" stop-color="#dcdcdc" stop-opacity="0"/></linearGradient><linearGradient id="linearGradient1094"><stop id="stop1096" offset="0" stop-color="#999" stop-opacity="1"/><stop id="stop1098" offset="1" stop-color="#999" stop-opacity="0"/></linearGradient><linearGradient id="linearGradient839"><stop id="stop841" offset="0" stop-color="#000" stop-opacity="1"/><stop id="stop857" offset=".5" stop-color="#404040" stop-opacity=".749"/><stop id="stop849" offset="1" stop-color="gray" stop-opacity=".498"/></linearGradient><radialGradient id="radialGradient845-1" cx="146.429" cy="216.786" r="74.286" fx="146.429" fy="216.786" gradientTransform="matrix(1,0,0,0.48687444,0,58.738289)" gradientUnits="userSpaceOnUse" xlink:href="#linearGradient839-7"/><linearGradient id="linearGradient839-7"><stop id="stop841-4" offset="0" stop-color="#0f0f0f" stop-opacity="1"/><stop id="stop857-0" offset=".5" stop-color="#373737" stop-opacity=".749"/><stop id="stop849-9" offset="1" stop-color="gray" stop-opacity=".498"/></linearGradient><radialGradient id="radialGradient846" cx="146.429" cy="216.786" r="74.286" fx="146.429" fy="216.786" gradientTransform="matrix(1,0,0,0.48687444,0,58.738289)" gradientUnits="userSpaceOnUse" xlink:href="#linearGradient839-7"/><filter id="filter981"><feGaussianBlur id="feGaussianBlur983" result="result1" stdDeviation="5"/><feComposite id="feComposite985" in="SourceGraphic" in2="result1" k1=".4" k2="0" k3=".8" operator="arithmetic" result="result2"/></filter><radialGradient id="radialGradient967-8" cx="52.282" cy="54.772" r="16.183" fx="52.282" fy="54.772" gradientTransform="matrix(1,0,0,0.89743585,0,5.6176217)" gradientUnits="userSpaceOnUse" xlink:href="#linearGradient961-8"/><linearGradient id="linearGradient961-8"><stop id="stop963-2" offset="0" stop-color="red" stop-opacity="1"/><stop id="stop965-4" offset="1" stop-color="red" stop-opacity="0"/></linearGradient><filter id="filter981-5" color-interpolation-filters="sRGB"><feGaussianBlur id="feGaussianBlur983-5" result="result1" stdDeviation="5"/><feComposite id="feComposite985-1" in="SourceGraphic" in2="result1" k1=".4" k2="0" k3=".8" operator="arithmetic" result="fbSourceGraphic"/><feColorMatrix id="feColorMatrix1034" in="fbSourceGraphic" result="fbSourceGraphicAlpha" values="0 0 0 -1 0 0 0 0 -1 0 0 0 0 -1 0 0 0 0 1 0"/><feGaussianBlur id="feGaussianBlur1036" in="fbSourceGraphic" result="result1" stdDeviation="5"/><feComposite id="feComposite1038" in="fbSourceGraphic" in2="result1" k1=".4" k2="0" k3=".8" operator="arithmetic" result="result2"/></filter><radialGradient id="radialGradient1007-0" cx="52.282" cy="54.772" r="16.183" fx="52.282" fy="54.772" gradientTransform="matrix(1,0,0,0.89743585,0,5.6176217)" gradientUnits="userSpaceOnUse" xlink:href="#linearGradient961-8-9"/><linearGradient id="linearGradient961-8-9"><stop id="stop963-2-4" offset="0" stop-color="red" stop-opacity="1"/><stop id="stop965-4-8" offset="1" stop-color="red" stop-opacity="0"/></linearGradient><filter id="filter981-5-8" color-interpolation-filters="sRGB"><feGaussianBlur id="feGaussianBlur983-5-2" result="result1" stdDeviation="5"/><feComposite id="feComposite985-1-4" in="SourceGraphic" in2="result1" k1=".4" k2="0" k3=".8" operator="arithmetic" result="fbSourceGraphic"/><feColorMatrix id="feColorMatrix1034-5" in="fbSourceGraphic" result="fbSourceGraphicAlpha" values="0 0 0 -1 0 0 0 0 -1 0 0 0 0 -1 0 0 0 0 1 0"/><feGaussianBlur id="feGaussianBlur1036-5" in="fbSourceGraphic" result="result1" stdDeviation="5"/><feComposite id="feComposite1038-1" in="fbSourceGraphic" in2="result1" k1=".4" k2="0" k3=".8" operator="arithmetic" result="result2"/></filter><radialGradient id="radialGradient194" cx="52.282" cy="54.772" r="16.183" fx="52.282" fy="54.772" gradientTransform="matrix(1,0,0,0.89743585,0,5.6176217)" gradientUnits="userSpaceOnUse" xlink:href="#linearGradient961-8-9"/><radialGradient id="radialGradient967-7" cx="52.282" cy="54.772" r="16.183" fx="52.282" fy="54.772" gradientTransform="matrix(1,0,0,0.89743585,0,5.6176217)" gradientUnits="userSpaceOnUse" xlink:href="#linearGradient961-1"/><linearGradient id="linearGradient961-1"><stop id="stop963-1" offset="0" stop-color="red" stop-opacity="1"/><stop id="stop965-5" offset="1" stop-color="red" stop-opacity="0"/></linearGradient><filter id="filter981-2" color-interpolation-filters="sRGB"><feGaussianBlur id="feGaussianBlur983-7" result="result1" stdDeviation="5"/><feComposite id="feComposite985-6" in="SourceGraphic" in2="result1" k1=".4" k2="0" k3=".8" operator="arithmetic" result="result2"/></filter><radialGradient id="radialGradient247" cx="52.282" cy="54.772" r="16.183" fx="52.282" fy="54.772" gradientTransform="matrix(1,0,0,0.89743585,0,5.6176217)" gradientUnits="userSpaceOnUse" xlink:href="#linearGradient961-1"/><radialGradient id="radialGradient1100" cx="197.925" cy="204.149" r="8.714" fx="197.925" fy="204.149" gradientTransform="matrix(1,0,0,1.0476191,0,-9.7214045)" gradientUnits="userSpaceOnUse" xlink:href="#linearGradient1094"/><radialGradient id="radialGradient846-7" cx="146.429" cy="216.786" r="74.286" fx="146.429" fy="216.786" gradientTransform="matrix(1,0,0,0.48687444,0,58.738289)" gradientUnits="userSpaceOnUse" xlink:href="#linearGradient839-7-4"/><linearGradient id="linearGradient839-7-4"><stop id="stop841-4-0" offset="0" stop-color="#000" stop-opacity="1"/><stop id="stop857-0-9" offset=".5" stop-color="#404040" stop-opacity=".749"/><stop id="stop849-9-4" offset="1" stop-color="gray" stop-opacity=".498"/></linearGradient><radialGradient id="radialGradient3735" cx="146.429" cy="216.786" r="74.286" fx="146.429" fy="216.786" gradientTransform="matrix(1,0,0,0.48687444,0,58.738289)" gradientUnits="userSpaceOnUse" xlink:href="#linearGradient839-7-4"/><radialGradient id="radialGradient846-8" cx="146.429" cy="216.786" r="74.286" fx="146.429" fy="216.786" gradientTransform="matrix(1,0,0,0.48687444,0,58.738289)" gradientUnits="userSpaceOnUse" xlink:href="#linearGradient839-7-2"/><linearGradient id="linearGradient839-7-2"><stop id="stop841-4-4" offset="0" stop-color="#000" stop-opacity="1"/><stop id="stop857-0-5" offset=".5" stop-color="#404040" stop-opacity=".749"/><stop id="stop849-9-5" offset="1" stop-color="gray" stop-opacity=".498"/></linearGradient><linearGradient id="linearGradient3841" x1="-17.811" x2="67.927" y1="217.34" y2="212.009" gradientUnits="userSpaceOnUse" xlink:href="#linearGradient3835"/><linearGradient id="linearGradient3841-2" x1="-92.616" x2="21.596" y1="207.261" y2="212.27" gradientUnits="userSpaceOnUse" xlink:href="#linearGradient3835-4"/><linearGradient id="linearGradient3835-4"><stop id="stop3837-5" offset="0" stop-color="#666" stop-opacity="1"/><stop id="stop3839-8" offset="1" stop-color="#666" stop-opacity="0"/></linearGradient><linearGradient id="linearGradient3841-1" x1="-92.616" x2="21.596" y1="207.261" y2="212.27" gradientUnits="userSpaceOnUse" xlink:href="#linearGradient3835-2"/><linearGradient id="linearGradient3835-2"><stop id="stop3837-1" offset="0" stop-color="#666" stop-opacity="1"/><stop id="stop3839-4" offset="1" stop-color="#666" stop-opacity="0"/></linearGradient><linearGradient id="linearGradient3977" x1="-300.811" x2="-300.881" y1="83.488" y2="90.773" gradientTransform="translate(121.44817,30.161159)" gradientUnits="userSpaceOnUse" xlink:href="#linearGradient3971"/><linearGradient id="linearGradient4007" x1="-166.877" x2="-166.81" y1="247.665" y2="254.088" gradientTransform="translate(81.216394,-87.259018)" gradientUnits="userSpaceOnUse" xlink:href="#linearGradient4001"/><radialGradient id="radialGradient4086" cx="52.282" cy="54.772" r="16.183" fx="52.282" fy="54.772" gradientTransform="matrix(1,0,0,0.89743585,0,5.6176217)" gradientUnits="userSpaceOnUse" xlink:href="#linearGradient961-1"/><radialGradient id="radialGradient4088" cx="52.282" cy="54.772" r="16.183" fx="52.282" fy="54.772" gradientTransform="matrix(1,0,0,0.89743585,0,5.6176217)" gradientUnits="userSpaceOnUse" xlink:href="#linearGradient961-8-9"/><radialGradient id="radialGradient1656" cx="57.884" cy="45.643" r="21.784" fx="57.884" fy="45.643" gradientTransform="matrix(1,0,0,0.8380952,0,7.3898456)" gradientUnits="userSpaceOnUse" xlink:href="#linearGradient1622-8"/><linearGradient id="linearGradient1622-8"><stop id="stop1624-2" offset="0" stop-color="#0f0" stop-opacity="1"/><stop id="stop1626-4" offset="1" stop-color="#0f0" stop-opacity="0"/></linearGradient><filter id="filter1630-5" color-interpolation-filters="sRGB"><feGaussianBlur id="feGaussianBlur1632-5" result="result1" stdDeviation="5"/><feComposite id="feComposite1634-1" in="SourceGraphic" in2="result1" k1=".4" k2="0" k3=".8" k4="0" operator="arithmetic" result="result2"/></filter><radialGradient id="radialGradient1628" cx="57.884" cy="45.643" r="21.784" fx="57.884" fy="45.643" gradientTransform="matrix(1,0,0,0.8380952,0,7.3898456)" gradientUnits="userSpaceOnUse" xlink:href="#linearGradient1622"/><linearGradient id="linearGradient1622"><stop id="stop1624" offset="0" stop-color="#0f0" stop-opacity="1"/><stop id="stop1626" offset="1" stop-color="#0f0" stop-opacity="0"/></linearGradient><filter id="filter1630" color-interpolation-filters="sRGB"><feGaussianBlur id="feGaussianBlur1632" result="result1" stdDeviation="5"/><feComposite id="feComposite1634" in="SourceGraphic" in2="result1" k1=".4" k2="0" k3=".8" k4="0" operator="arithmetic" result="result2"/></filter><radialGradient id="radialGradient3239" cx="57.884" cy="45.643" r="21.784" fx="57.884" fy="45.643" gradientTransform="matrix(1,0,0,0.8380952,0,7.3898456)" gradientUnits="userSpaceOnUse" xlink:href="#linearGradient1622-8"/><linearGradient id="linearGradient2974" x1="-17.811" x2="67.927" y1="217.34" y2="212.009" gradientUnits="userSpaceOnUse" xlink:href="#linearGradient3835"/><radialGradient id="radialGradient2976" cx="146.429" cy="216.786" r="74.286" fx="146.429" fy="216.786" gradientTransform="matrix(1,0,0,0.48687444,0,58.738289)" gradientUnits="userSpaceOnUse" xlink:href="#linearGradient839-7"/><linearGradient id="linearGradient2978" x1="-300.811" x2="-300.881" y1="83.488" y2="90.773" gradientTransform="translate(121.44817,30.161159)" gradientUnits="userSpaceOnUse" xlink:href="#linearGradient3971"/><linearGradient id="linearGradient2980" x1="-166.877" x2="-166.81" y1="247.665" y2="254.088" gradientTransform="translate(81.216394,-87.259018)" gradientUnits="userSpaceOnUse" xlink:href="#linearGradient4001"/><linearGradient id="linearGradient2983" x1="-166.877" x2="-166.81" y1="247.665" y2="254.088" gradientTransform="matrix(1.5,0,0,1.4999999,95.951448,-382.04247)" gradientUnits="userSpaceOnUse" xlink:href="#linearGradient4001"/><linearGradient id="linearGradient2989" x1="-300.811" x2="-300.881" y1="83.488" y2="90.773" gradientTransform="matrix(1.5,0,0,1.5,320.95451,-176.57972)" gradientUnits="userSpaceOnUse" xlink:href="#linearGradient3971"/><radialGradient id="radialGradient3757" cx="214.199" cy="113.177" r="31.328" fx="214.199" fy="113.177" gradientTransform="matrix(0.99998321,0.00579562,-0.0105203,1.8151852,-6.7621478,-80.740762)" gradientUnits="userSpaceOnUse" xlink:href="#linearGradient3751"/><radialGradient id="radialGradient3795" cx="140.06" cy="122.558" r="74.286" fx="140.06" fy="122.558" gradientTransform="matrix(-1.044538,-0.03616902,0.00691375,-0.30054404,291.96598,195.00144)" gradientUnits="userSpaceOnUse" xlink:href="#linearGradient3789"/><linearGradient id="linearGradient2974-1" x1="-17.811" x2="67.927" y1="217.34" y2="212.009" gradientUnits="userSpaceOnUse" xlink:href="#linearGradient3835-7"/><linearGradient id="linearGradient3835-7"><stop id="stop3837-4" offset="0" stop-color="#737373" stop-opacity=".839"/><stop id="stop3839-0" offset="1" stop-color="#c1c1c1" stop-opacity="0"/></linearGradient><linearGradient id="linearGradient3009" x1="18.806" x2="42.69" y1="245.79" y2="161.125" gradientTransform="matrix(0.98663054,-0.00616167,-0.00671822,0.98152367,1.0530248,2.5371303)" gradientUnits="userSpaceOnUse" xlink:href="#linearGradient3835-7"/><radialGradient id="radialGradient3239-1" cx="57.884" cy="45.643" r="21.784" fx="57.884" fy="45.643" gradientTransform="matrix(1,0,0,0.8380952,0,7.3898456)" gradientUnits="userSpaceOnUse" xlink:href="#linearGradient1622-7"/><linearGradient id="linearGradient1622-7"><stop id="stop1624-4" offset="0" stop-color="#0064ff" stop-opacity="1"/><stop id="stop1626-0" offset="1" stop-color="#0064ff" stop-opacity=".395"/></linearGradient><filter id="filter1630-5-9" color-interpolation-filters="sRGB"><feGaussianBlur id="feGaussianBlur1632-5-4" result="result1" stdDeviation="5"/><feComposite id="feComposite1634-1-8" in="SourceGraphic" in2="result1" k1=".4" k2="0" k3=".8" k4="0" operator="arithmetic" result="result2"/></filter><linearGradient id="linearGradient3008"><stop id="stop3010" offset="0" stop-color="#0064ff" stop-opacity="1"/><stop id="stop3012" offset="1" stop-color="#0064ff" stop-opacity="0"/></linearGradient><filter id="filter1630-2" color-interpolation-filters="sRGB"><feGaussianBlur id="feGaussianBlur1632-4" result="result1" stdDeviation="5"/><feComposite id="feComposite1634-5" in="SourceGraphic" in2="result1" k1=".4" k2="0" k3=".8" k4="0" operator="arithmetic" result="result2"/></filter><radialGradient id="radialGradient3823" cx="57.884" cy="45.643" r="26.141" fx="57.884" fy="45.643" gradientTransform="matrix(0.95023408,-0.02937881,0.04543694,1.5504307,1.8591751,-21.260894)" gradientUnits="userSpaceOnUse" xlink:href="#linearGradient3008"/><radialGradient id="radialGradient3825" cx="56.366" cy="47.834" r="32.203" fx="56.366" fy="47.834" gradientTransform="matrix(0.82324555,0.0226486,-0.02067176,0.66315901,12.684945,13.658136)" gradientUnits="userSpaceOnUse" xlink:href="#linearGradient1622-7"/><filter id="filter3798" width="1.221" height="1.263" x="-.11" y="-.132"><feGaussianBlur id="feGaussianBlur3800" stdDeviation="2.003"/></filter></defs><metadata id="metadata7"/><g id="layer2" display="inline"><path id="rect141-4-4-8-2-4" fill="gray" fill-opacity="1" fill-rule="evenodd" stroke="none" d="m 211.54352,180.12419 c 0.81421,-0.56691 2.07984,-0.12986 2.85719,0.98657 l 24.00278,34.47378 c 0.29922,0.11606 0.52969,0.43216 0.53497,0.76833 l 41.21407,59.19334 c 0.77737,1.11647 0.74805,2.45511 -0.0662,3.02202 l -1.58348,1.10252 c -0.8142,0.56689 -2.10421,0.14685 -2.88156,-0.96961 l -2.00025,-2.87283 l -13.63038,-5.29011 l 0.20726,14.63613 l 2.00025,2.87281 c 0.77735,1.11647 0.74804,2.4551 -0.0662,3.02201 l -1.58349,1.10252 c -0.81421,0.56689 -2.10422,0.14686 -2.88158,-0.96961 l -41.21408,-59.19335 c -0.29935,-0.11619 -0.4884,-0.42807 -0.51169,-0.73493 L 191.91508,196.7666 c -0.77734,-1.11645 -0.72365,-2.47207 0.0905,-3.03897 l 1.58347,-1.10252 c 0.81422,-0.5669 2.07984,-0.12987 2.85718,0.98658 l 0.62799,0.90194 l 13.67806,5.30655 L 210.5206,185.201 l -0.65123,-0.93532 c -0.77736,-1.11645 -0.72368,-2.47206 0.0905,-3.03895 l 1.5835,-1.10254 z m -7.81724,23.94322 l 7.25666,10.42231 l -0.12022,-7.65368 l -7.13639,-2.76863 z m 13.44635,-9.31267 l 0.1214,7.60329 l 7.11197,2.78561 l -7.23338,-10.3889 z m 0.23168,14.61917 l 0.19175,14.25016 c 0.001,0.10576 -0.0156,0.20544 -0.0543,0.28576 l 1.48854,2.13789 l 13.6548,5.27315 l -0.23169,-14.61914 l -1.48852,-2.13791 c -0.0798,0.003 -0.19981,-0.0145 -0.28681,-0.0483 l -13.27381,-5.14161 z m 8.25473,26.19421 l 7.25665,10.42229 l -0.12022,-7.65367 l -7.13638,-2.76862 z m 13.44634,-9.31267 l 0.12139,7.60331 l 7.08874,2.7522 l -7.21015,-10.35551 z m 0.23167,14.61914 l 0.22273,13.93102 c 0.003,0.18674 -0.0901,0.34029 -0.20153,0.43789 l 0.32562,0.46765 l 13.67806,5.30657 l -0.23167,-14.61915 l -0.34887,-0.50108 c -0.13026,0.0706 -0.28209,0.0877 -0.45627,0.0201 l -12.98807,-5.04298 z m 6.9755,24.35696 l 7.25667,10.42231 l -0.12023,-7.65368 l -7.13638,-2.76863 z m 13.44635,-9.31266 l 0.097,7.62027 l 7.13637,2.76865 l -7.23339,-10.38892 z" display="inline"/><path id="rect141-4-4-8-2-4-9" fill="gray" fill-opacity="1" fill-rule="evenodd" stroke="none" d="m 212.48727,180.16249 c -0.81421,-0.56691 -2.07984,-0.12986 -2.85719,0.98657 l -24.00278,34.47378 c -0.29922,0.11606 -0.52969,0.43216 -0.53497,0.76833 l -41.21407,59.19334 c -0.77737,1.11647 -0.74805,2.45511 0.0662,3.02202 l 1.58348,1.10252 c 0.8142,0.5669 2.10421,0.14685 2.88156,-0.96961 l 2.00025,-2.87283 l 13.63038,-5.29011 l -0.20726,14.63614 l -2.00025,2.87281 c -0.77735,1.11647 -0.74804,2.4551 0.0662,3.02201 l 1.58349,1.10252 c 0.81421,0.56689 2.10422,0.14686 2.88158,-0.96961 l 41.21408,-59.19336 c 0.29935,-0.11619 0.4884,-0.42807 0.51169,-0.73493 l 24.02605,-34.50718 c 0.77734,-1.11645 0.72365,-2.47207 -0.0905,-3.03897 l -1.58347,-1.10252 c -0.81422,-0.5669 -2.07984,-0.12987 -2.85718,0.98658 l -0.62799,0.90194 l -13.67806,5.30655 l 0.23168,-14.61918 l 0.65123,-0.93532 c 0.77736,-1.11645 0.72368,-2.47206 -0.0905,-3.03895 l -1.5835,-1.10254 z m 7.81724,23.94322 l -7.25666,10.42231 l 0.12022,-7.65368 l 7.13639,-2.76863 z m -13.44635,-9.31267 l -0.1214,7.60329 l -7.11197,2.78561 l 7.23338,-10.3889 z m -0.23168,14.61917 l -0.19175,14.25016 c -0.001,0.10576 0.0156,0.20544 0.0543,0.28576 l -1.48854,2.13789 l -13.6548,5.27315 l 0.23169,-14.61914 l 1.48852,-2.13791 c 0.0798,0.003 0.19981,-0.0145 0.28681,-0.0483 l 13.27381,-5.14161 z m -8.25473,26.19421 l -7.25665,10.42229 l 0.12022,-7.65367 l 7.13638,-2.76862 z m -13.44634,-9.31267 l -0.12139,7.60331 l -7.08874,2.7522 l 7.21015,-10.35551 z m -0.23167,14.61914 l -0.22273,13.93102 c -0.003,0.18674 0.0901,0.34029 0.20153,0.43789 l -0.32562,0.46765 l -13.67806,5.30657 l 0.23167,-14.61915 l 0.34887,-0.50108 c 0.13026,0.0706 0.28209,0.0877 0.45627,0.0201 l 12.98807,-5.04298 z m -6.9755,24.35696 l -7.25667,10.42231 l 0.12023,-7.65368 l 7.13638,-2.76863 z m -13.44635,-9.31266 l -0.097,7.62027 l -7.13637,2.76865 l 7.23339,-10.38892 z" display="inline"/><path id="path282" fill="#666" fill-opacity="1" fill-rule="evenodd" stroke="none" d="m 206.639,204.14938 a 8.7136927,9.1286306 0 1 1 -17.42738,0 a 8.7136927,9.1286306 0 1 1 17.42738,0 z" transform="matrix(2.7134489,0,0,2.4637635,-325.12933,-300.56421)"/><rect id="rect274" width="141.494" height="25.726" x="139.889" y="266.742" fill="#666" fill-opacity="1" fill-rule="evenodd" stroke="none" ry="1.885"/><path id="path282-1" fill="url(#radialGradient1100)" fill-opacity="1" fill-rule="evenodd" stroke="none" d="m 206.639,204.14938 a 8.7136927,9.1286306 0 1 1 -17.42738,0 a 8.7136927,9.1286306 0 1 1 17.42738,0 z" display="inline" transform="matrix(2.0185413,0,0,1.7372691,-183.26434,-147.349)"/></g><g id="layer1" display="inline" transform="translate(-22.223346,53.739535)"><path id="path2965-1-9" fill="url(#linearGradient3009)" fill-opacity="1" fill-rule="evenodd" stroke="none" d="m 94.190871,162.65561 c 0,49.27021 -41.706255,89.21162 -93.1535265,89.21162 c -51.4472705,0 -93.1535235,-39.9414 -93.1535265,-89.21162" display="inline" transform="matrix(0.77141432,-1.1202252,1.186296,0.79424728,-56.418568,-52.414694)"/><path id="path2965" fill="#e1dbd7" fill-opacity="1" fill-rule="evenodd" stroke="none" d="m 94.190871,162.65561 c 0,49.27021 -41.706255,89.21162 -93.1535265,89.21162 c -51.4472705,0 -93.1535235,-39.9414 -93.1535265,-89.21162" transform="matrix(0.75379136,-1.1101423,1.1591951,0.78709842,-52.584398,-51.87642)"/><path id="path2965-1" fill="url(#linearGradient2974)" fill-opacity="1" fill-rule="evenodd" stroke="none" d="m 94.190871,162.65561 c 0,49.27021 -41.706255,89.21162 -93.1535265,89.21162 c -51.4472705,0 -93.1535235,-39.9414 -93.1535265,-89.21162" display="inline" transform="matrix(0.75379136,-1.1101423,1.1591951,0.78709842,-52.596462,-51.57921)"/><path id="path25-1-1-1" fill="url(#radialGradient3795)" fill-opacity="1" fill-rule="evenodd" stroke="none" d="m 220.71429,142.5 c 0,15.58799 -33.25885,28.22456 -74.28572,28.22456 c -41.02686,0 -74.28571,-12.63657 -74.28571,-28.22456 c 0,-15.58799 33.25885,-28.22456 74.28571,-28.22456 c 41.02687,0 74.28572,12.63657 74.28572,28.22456 z" display="inline" opacity=".75" transform="matrix(0.88558812,-1.537967,1.4212837,0.83457329,-187.37088,188.63568)"/><path id="path25-1-1" fill="#dcdcdc" fill-opacity="1" fill-rule="evenodd" stroke="none" d="m 220.71429,142.5 c 0,15.58799 -33.25885,28.22456 -74.28572,28.22456 c -41.02686,0 -74.28571,-12.63657 -74.28571,-28.22456 c 0,-15.58799 33.25885,-28.22456 74.28571,-28.22456 c 41.02687,0 74.28572,12.63657 74.28572,28.22456 z" transform="matrix(0.96426536,-1.6582971,1.5475531,0.89987002,-228.45979,191.97371)"/><path id="path25-1-7-4-1" fill="gray" fill-opacity="1" fill-rule="evenodd" stroke="none" d="m 220.71429,142.5 c 0,15.67523 -33.25885,28.38252 -74.28572,28.38252 c -41.02686,0 -74.28571,-12.70729 -74.28571,-28.38252 c 0,-15.67523 33.25885,-28.38252 74.28571,-28.38252 c 41.02687,0 74.28572,12.70729 74.28572,28.38252 z" display="inline" transform="matrix(0.86276373,-1.4837395,1.1904255,0.69220769,-163.67957,197.99767)"/><path id="path25-1-7-4" fill="url(#radialGradient2976)" fill-opacity="1" fill-rule="evenodd" stroke="none" d="m 220.71429,142.5 c 0,15.67523 -33.25885,28.38252 -74.28572,28.38252 c -41.02686,0 -74.28571,-12.70729 -74.28571,-28.38252 c 0,-15.67523 33.25885,-28.38252 74.28571,-28.38252 c 41.02687,0 74.28572,12.70729 74.28572,28.38252 z" transform="matrix(0.86276373,-1.4837395,1.1904255,0.69220769,-163.55154,197.76088)"/><rect id="rect71-4" width="119.774" height="7.723" x="-176.054" y="-47.17" fill="#ccc" fill-opacity="1" fill-rule="evenodd" stroke="none" ry="2.366" transform="matrix(-0.9693926,0.24551575,-0.30635416,-0.95191761,0,0)"/><rect id="rect71" width="115.035" height="9.563" x="-183.436" y="38.956" fill="#b3b3b3" fill-opacity="1" fill-rule="evenodd" stroke="none" ry="2.93" transform="matrix(-0.32190147,-0.94677318,0.97984847,-0.19974229,0,0)"/><rect id="rect47" width="52.593" height="11.826" x="-24.16" y="73.798" fill="#999" fill-opacity="1" fill-rule="evenodd" stroke="none" ry="1.288" transform="matrix(0.50267466,-0.86447567,0.86447567,0.50267466,0,0)"/><rect id="rect71-4-2" width="119.774" height="7.723" x="-176.099" y="-47.209" fill="url(#linearGradient2989)" fill-opacity="1" fill-rule="evenodd" stroke="none" display="inline" ry="2.366" transform="matrix(-0.9693926,0.24551575,-0.30635416,-0.95191761,0,0)"/><path id="path45-7" fill="#999" fill-opacity="1" fill-rule="evenodd" stroke="none" d="m 154.35685,50.829876 c 0,2.635384 -8.08117,4.771784 -18.0498,4.771784 c -9.96862,0 -18.04979,-2.1364 -18.04979,-4.771784 c 0,-2.635384 8.08117,-4.771784 18.04979,-4.771784 c 9.96863,0 18.0498,2.1364 18.0498,4.771784 z" transform="matrix(0.73234495,-1.2594516,1.2967135,0.75401198,-91.717594,173.91409)"/><path id="path45" fill="#ccc" fill-opacity="1" fill-rule="evenodd" stroke="none" d="m 154.35685,50.829876 c 0,2.635384 -8.08117,4.771784 -18.0498,4.771784 c -9.96862,0 -18.04979,-2.1364 -18.04979,-4.771784 c 0,-2.635384 8.08117,-4.771784 18.04979,-4.771784 c 9.96863,0 18.0498,2.1364 18.0498,4.771784 z" transform="matrix(0.73234495,-1.2594516,1.2967135,0.75401198,-100.05745,169.06464)"/><rect id="rect71-4-8" width="96.28" height="6.208" x="-184.26" y="-6.308" fill="#ccc" fill-opacity="1" fill-rule="evenodd" stroke="none" display="inline" ry="1.902" transform="matrix(-0.90887982,-0.41705811,0.3587208,-0.9334449,0,0)"/><rect id="rect71-4-8-2" width="96.28" height="6.208" x="-184.007" y="-6.627" fill="url(#linearGradient2983)" fill-opacity="1" fill-rule="evenodd" stroke="none" display="inline" ry="1.902" transform="matrix(-0.90887982,-0.41705812,0.35872081,-0.9334449,0,0)"/><path id="path2977" fill="url(#radialGradient3757)" fill-opacity="1" fill-rule="evenodd" stroke="none" d="m 231.95021,113.90041 c 0,33.5725 -14.02594,60.78839 -31.3278,60.78839 c -17.30187,0 -31.3278,-27.21589 -31.3278,-60.78839 c 0,-33.572494 14.02593,-60.78838 31.3278,-60.78838 c 17.30186,0 31.3278,27.215886 31.3278,60.78838 z" opacity=".6" transform="matrix(0.97182849,-0.23568917,0.23568917,0.97182849,6.8392168,-9.8852643)"/></g><g id="layer3" display="inline"><path id="path398-7-5" fill="url(#radialGradient3825)" fill-opacity="1" fill-rule="evenodd" stroke="none" d="m 79.668049,45.643154 a 21.784233,18.257261 0 1 1 -43.568466,0 a 21.784233,18.257261 0 1 1 43.568466,0 z" display="inline" filter="url(#filter3798)" opacity="1" transform="matrix(1.9232979,0,0,2.047248,-67.344411,-4.6461766)"/><path id="path398-1" fill="url(#radialGradient3823)" fill-opacity="1" fill-rule="evenodd" stroke="none" d="m 79.668049,45.643154 a 21.784233,18.257261 0 1 1 -43.568466,0 a 21.784233,18.257261 0 1 1 43.568466,0 z" display="inline" filter="url(#filter1630-2)" opacity=".8" transform="matrix(0.98567456,0,0,0.95964371,-15.353367,43.335758)"/></g></svg>