<svg xmlns="http://www.w3.org/2000/svg" xmlns:svg="http://www.w3.org/2000/svg" id="svg2383" width="64" height="64" version="1.0"><g id="layer1" display="inline"><path id="path2454" fill="#afdde9" fill-opacity="1" stroke="#afdde9" stroke-dasharray="none" stroke-linecap="round" stroke-linejoin="round" stroke-miterlimit="4" stroke-opacity="1" stroke-width=".227" d="M 13.627273,45.318215 L 3.2181818,45.269753 L 3.2181818,27.907604 L 3.2181818,10.545455 L 17.581818,10.545455 L 31.945455,10.545455 L 31.945455,28 L 31.945455,45.454545 L 27.990909,45.410611 C 25.815909,45.386445 19.352273,45.344865 13.627273,45.318211 L 13.627273,45.318215 z"/><path id="path2456" fill="#37c8ab" fill-opacity="1" stroke="#37c8ab" stroke-dasharray="none" stroke-linecap="round" stroke-linejoin="round" stroke-miterlimit="4" stroke-opacity="1" stroke-width=".215" d="M 33.121319,27.965909 L 33.121319,10.539502 L 47.309092,10.539502 L 61.496862,10.539502 L 61.496862,27.965909 L 61.496862,45.392317 L 47.309092,45.392317 L 33.121319,45.392317 L 33.121319,27.965909 z"/><path id="path2458" fill="#3771c8" fill-opacity="1" stroke="#3771c8" stroke-dasharray="none" stroke-linecap="round" stroke-linejoin="round" stroke-miterlimit="4" stroke-opacity="1" stroke-width=".319" d="M 3.2642064,47.974499 L 3.2642064,46.350844 L 15.48446,46.46812 C 22.205614,46.532623 35.305374,46.585396 44.59504,46.585396 L 61.485368,46.585396 L 61.485368,48.091773 L 61.485368,49.598152 L 32.374787,49.598152 L 3.2642064,49.598152 L 3.2642064,47.974499 z"/></g><g id="layer2" display="inline"><text id="text2415" x="25.767" y="49.335" fill="#000" fill-opacity="1" stroke="none" stroke-linecap="butt" stroke-linejoin="miter" stroke-opacity="1" stroke-width="1" font-family="Bitstream Vera Sans" font-size="3.5" font-style="normal" font-weight="normal" writing-mode="lr-tb" xml:space="preserve"><tspan id="tspan2417" x="25.767" y="49.335">Chatbar</tspan></text><text id="text2419" x="-43.005" y="51.744" fill="#000" fill-opacity="1" stroke="none" stroke-linecap="butt" stroke-linejoin="miter" stroke-opacity="1" stroke-width="1" font-family="Bitstream Vera Sans" font-size="12" font-style="normal" font-weight="normal" transform="matrix(0,-1,1,0,0,0)" xml:space="preserve"><tspan id="tspan2421" x="-43.005" y="51.744">Tree</tspan></text><text id="text2397" x="-38.312" y="20.852" fill="#000" fill-opacity="1" stroke="none" stroke-linecap="butt" stroke-linejoin="miter" stroke-opacity="1" stroke-width="1" display="inline" font-family="Bitstream Vera Sans" font-size="12" font-style="normal" font-weight="normal" transform="matrix(0,-1,1,0,0,0)" xml:space="preserve"><tspan id="tspan2399" x="-38.312" y="20.852">Log</tspan></text><rect id="rect2393" width="59.636" height="40.545" x="2.545" y="9.818" fill="none" fill-opacity="1" stroke="#000" stroke-dasharray="none" stroke-linecap="round" stroke-linejoin="round" stroke-miterlimit="4" stroke-opacity="1" stroke-width="1.247" display="inline"/><path id="path2403" fill="none" fill-rule="evenodd" stroke="#000" stroke-linecap="butt" stroke-linejoin="miter" stroke-opacity="1" stroke-width=".946" d="M 32.545455,45.859703 L 32.545455,9.7652972" display="inline"/><path id="path2405" fill="none" fill-rule="evenodd" stroke="#000" stroke-linecap="butt" stroke-linejoin="miter" stroke-opacity="1" stroke-width="1.075" d="M 2.5830783,45.855805 L 61.757831,45.962376" display="inline"/></g></svg>