<svg xmlns="http://www.w3.org/2000/svg" xmlns:svg="http://www.w3.org/2000/svg" xmlns:xlink="http://www.w3.org/1999/xlink" id="svg2" width="520" height="520" version="1.1"><defs id="defs4"><linearGradient id="linearGradient6069"><stop id="stop6071" offset="0" stop-color="#969696" stop-opacity="1"/><stop id="stop6077" offset=".535" stop-color="#c8c8c8" stop-opacity="1"/><stop id="stop6079" offset=".948" stop-color="#fff" stop-opacity="1"/><stop id="stop6073" offset="1" stop-color="#646464" stop-opacity="1"/></linearGradient><linearGradient id="linearGradient3610"><stop id="stop3612" offset="0" stop-color="#ff0" stop-opacity="1"/><stop id="stop3622" offset=".2" stop-color="#ff1d00" stop-opacity=".788"/><stop id="stop3620" offset=".412" stop-color="red" stop-opacity="1"/><stop id="stop3660" offset=".474" stop-color="#ff5324" stop-opacity="1"/><stop id="stop3618" offset=".474" stop-color="#d60000" stop-opacity="1"/><stop id="stop3624" offset=".576" stop-color="#d40000" stop-opacity="1"/><stop id="stop3626" offset=".888" stop-color="#000" stop-opacity="1"/><stop id="stop3614" offset="1" stop-color="#000" stop-opacity="1"/></linearGradient><radialGradient id="radialGradient3616" cx="395.714" cy="576.648" r="250" fx="395.714" fy="576.648" gradientUnits="userSpaceOnUse" xlink:href="#linearGradient3610"/><radialGradient id="radialGradient6087" cx="391.429" cy="592.362" r="297.057" fx="391.429" fy="592.362" gradientTransform="matrix(1,0,0,1.0096181,0,-5.697379)" gradientUnits="userSpaceOnUse" spreadMethod="pad" xlink:href="#linearGradient6069"/></defs><metadata id="metadata7"/><g id="layer1" display="inline" transform="translate(-136.18941,-316.83273)"><path id="path3608" fill="url(#radialGradient3616)" fill-opacity="1" d="m 645.71429,576.64789 c 0,138.07119 -111.92881,250 -250,250 -138.07118,0 -250,-111.92881 -250,-250 0,-138.07119 111.92882,-250 250,-250 138.07119,0 250,111.92881 250,250 z"/></g><g id="layer2" display="inline" transform="translate(-136.18941,-316.83273)"><path id="path3663" fill="none" stroke="url(#radialGradient6087)" stroke-dasharray="none" stroke-miterlimit="4" stroke-opacity="1" stroke-width="16.972" d="m 680,592.36218 c 0,160.95155 -129.19784,291.42856 -288.57144,291.42856 -159.37361,0 -288.57144,-130.47701 -288.57144,-291.42856 0,-160.95155 129.19783,-291.42856 288.57144,-291.42856 C 550.80216,300.93362 680,431.41063 680,592.36218 z" transform="matrix(0.87537496,0,0,0.86679293,53.542651,63.377381)"/></g></svg>